<svg width="32" height="32" viewBox="0 0 32 32" fill="none" xmlns="http://www.w3.org/2000/svg">
<path d="M30.3968 25.6H27.392C26.9664 25.6 26.56 25.7696 26.2592 26.0672L26.064 26.2624C25.7632 26.5632 25.5968 26.9696 25.5968 27.3952V30.4C25.5968 31.2832 24.88 32 23.9968 32H20.7968C19.9136 32 19.1968 31.2832 19.1968 30.4V27.3952C19.1968 26.9696 19.0272 26.5632 18.7296 26.2624L18.5344 26.0672C18.2336 25.7664 17.8272 25.6 17.4016 25.6H14.3968C13.5136 25.6 12.7968 24.8832 12.7968 24V20.8C12.7968 19.9168 13.5136 19.2 14.3968 19.2H17.5968C18.48 19.2 19.1968 19.9168 19.1968 20.8V23.8048C19.1968 24.2304 19.3664 24.6368 19.664 24.9376L19.8592 25.1328C20.16 25.4336 20.5664 25.6 20.992 25.6H23.8048C24.2304 25.6 24.6368 25.4304 24.9376 25.1328L25.1328 24.9376C25.4336 24.6368 25.6 24.2304 25.6 23.8048V8.00002C25.6 7.11682 26.3168 6.40002 27.2 6.40002H30.4C31.2832 6.40002 32 7.11682 32 8.00002V24C32 24.8832 31.2832 25.6 30.4 25.6H30.3968Z" fill="#253761"/>
<path d="M8.192 6.39999H11.0048C11.4304 6.39999 11.8368 6.56959 12.1376 6.86719L12.3328 7.06239C12.6336 7.36319 12.8 7.76959 12.8 8.19519V11.2C12.8 12.0832 13.5168 12.8 14.4 12.8H17.6C18.4832 12.8 19.2 12.0832 19.2 11.2V7.99999C19.2 7.11679 18.4832 6.39999 17.6 6.39999H14.5952C14.1696 6.39999 13.7632 6.23039 13.4624 5.93279L13.2672 5.73759C12.9664 5.43679 12.8 5.03039 12.8 4.60479V1.6C12.8 0.716799 12.0832 0 11.2 0H8C7.1168 0 6.4 0.716799 6.4 1.6V4.60479C6.4 5.03039 6.2304 5.43679 5.9328 5.73759L5.7376 5.93279C5.4368 6.23359 5.0304 6.39999 4.6048 6.39999H1.6C0.7168 6.39999 0 7.11679 0 7.99999V24C0 24.8832 0.7168 25.6 1.6 25.6H4.8C5.6832 25.6 6.4 24.8832 6.4 24V8.19519C6.4 7.76959 6.5696 7.36319 6.8672 7.06239L7.0624 6.86719C7.3632 6.56639 7.7696 6.39999 8.1952 6.39999H8.192Z" fill="#253761"/>
</svg>
