<svg width="114" height="16" viewBox="0 0 114 16" fill="none" xmlns="http://www.w3.org/2000/svg">
<g id="Frame 3">
<path id="Vector" d="M45.2542 8.00859C45.2542 10.0827 45.2563 12.1589 45.2542 14.233C45.2542 15.0851 45.1939 15.135 44.2462 15.135C43.3151 15.135 43.2653 15.0893 43.2611 14.2122C43.2549 12.612 43.2383 11.0138 43.257 9.4135C43.2611 8.96459 43.1219 8.81496 42.6667 8.8212C40.7422 8.84406 38.8178 8.85029 36.8933 8.82951C36.4132 8.82327 36.2573 8.95836 36.2656 9.44884C36.2947 11.0699 36.2781 12.6909 36.274 14.312C36.2719 15.0893 36.2012 15.1433 35.2577 15.1433C34.3328 15.1433 34.2601 15.0893 34.2601 14.2995C34.258 10.1056 34.258 5.91161 34.2601 1.71973C34.2601 0.92791 34.3516 0.85725 35.2514 0.85725C36.168 0.85725 36.2698 0.934145 36.2719 1.69687C36.2781 3.2535 36.2885 4.81012 36.2656 6.36675C36.2594 6.79488 36.3425 6.97361 36.8247 6.96738C38.77 6.94244 40.7173 6.94244 42.6626 6.97569C43.1801 6.984 43.2653 6.78864 43.259 6.33766C43.2382 4.80389 43.2549 3.26805 43.2611 1.73428C43.2653 0.936225 43.3484 0.86764 44.2462 0.865562C45.1482 0.865562 45.2459 0.94038 45.2479 1.71973C45.2563 3.81463 45.2542 5.91161 45.2542 8.00859Z" fill="#253761"/>
<path id="Vector_2" d="M66.0308 5.91787C66.2864 5.8389 66.2906 5.58951 66.3654 5.39831C66.8601 4.13056 67.3547 2.86281 67.8223 1.58467C68.0135 1.06302 68.3294 0.83857 68.8926 0.853118C70.5178 0.896761 70.3578 0.634898 70.975 2.25803C72.4589 6.15479 73.949 10.0495 75.435 13.9442C75.5119 14.1458 75.593 14.3474 75.6449 14.5552C75.6865 14.7256 75.6761 14.9002 75.5264 15.0332C75.1482 15.3699 73.8617 15.0935 73.6705 14.6196C73.3609 13.859 73.0678 13.0921 72.7748 12.3252C72.6771 12.0716 72.5774 11.8763 72.2345 11.8846C71.0249 11.9158 69.8154 11.9158 68.6058 11.9282C67.8514 11.9158 67.0949 11.9158 66.3405 11.8846C66.0142 11.87 65.8812 12.0301 65.7814 12.3003C65.5029 13.0484 65.2161 13.7945 64.9231 14.5365C64.7111 15.0706 63.4974 15.401 63.0485 15.0457C62.797 14.8482 62.8614 14.5801 62.9529 14.3307C63.1482 13.8049 63.3519 13.2812 63.5598 12.7595C64.2206 11.0969 64.7173 9.36989 65.478 7.7426C65.7461 7.16692 65.9186 6.54759 66.0308 5.91787ZM67.7142 10.0952C69.009 10.1097 70.3038 10.1181 71.5985 10.143C72.1118 10.1534 71.8978 9.86036 71.8188 9.6463C71.266 8.17488 70.7049 6.70554 70.1416 5.23827C69.8756 4.54829 69.5992 3.86038 69.2563 2.98751C68.5019 5.02629 67.8161 6.8718 67.1323 8.71938C67.0616 8.8711 66.9806 9.01865 66.9224 9.17245C66.5151 10.2428 66.5151 10.2428 67.7142 10.0952Z" fill="#253761"/>
<path id="Vector_3" d="M50.3816 8.02312C50.3816 5.92614 50.3795 3.82916 50.3837 1.7301C50.3858 0.971535 50.4918 0.865542 51.2462 0.865542C53.7983 0.863464 56.3504 0.861385 58.9025 0.865542C59.6382 0.86762 59.684 0.961141 59.7193 1.77375C59.7463 2.3806 59.5447 2.62376 58.9108 2.61545C56.9219 2.59051 54.931 2.62376 52.942 2.60506C52.4994 2.6009 52.3352 2.71105 52.3477 3.18074C52.3788 4.30509 52.3809 5.42943 52.3477 6.55378C52.3352 7.00477 52.5098 7.08166 52.9088 7.0775C54.7481 7.06088 56.5853 7.06711 58.4245 7.07127C59.208 7.07335 59.2683 7.13985 59.2683 7.93168C59.2683 8.72142 59.2184 8.77753 58.4204 8.77961C56.5811 8.78377 54.7439 8.79416 52.9046 8.77338C52.4869 8.76922 52.3414 8.88145 52.3497 9.31373C52.3768 10.5025 52.3768 11.6934 52.3497 12.88C52.3394 13.3206 52.4994 13.4225 52.9088 13.4183C54.9642 13.4017 57.0175 13.41 59.073 13.4142C59.8315 13.4162 59.8502 13.4744 59.8793 14.3057C59.9022 14.9126 59.6964 15.1537 59.0605 15.1474C56.4439 15.1204 53.8253 15.1225 51.2088 15.1454C50.5874 15.1516 50.365 14.9313 50.3712 14.3141C50.3941 12.2171 50.3795 10.1201 50.3795 8.02104C50.3795 8.02312 50.3795 8.02312 50.3816 8.02312Z" fill="#253761"/>
<path id="Vector_4" d="M18.5023 13.352C19.0551 13.352 19.61 13.3499 20.1628 13.352C21.5677 13.3582 22.9747 13.379 24.3797 13.3686C25.0489 13.3645 25.0759 13.7801 25.0759 14.2768C25.0759 14.759 25.0239 15.1372 24.3984 15.1352C21.522 15.1268 18.6457 15.1289 15.7673 15.1352C15.2893 15.1372 15.1313 14.9024 15.1106 14.4556C15.0773 13.7967 15.3329 13.2585 15.7985 12.849C17.6024 11.2654 19.1694 9.4386 20.9921 7.87574C21.5033 7.43722 21.9626 6.94675 22.2848 6.35029C22.8334 5.33609 22.8646 4.29695 22.212 3.34095C21.6072 2.4556 20.6512 2.31844 19.6599 2.44521C18.5314 2.59069 17.8372 3.27652 17.4943 4.33228C17.1265 5.46494 17.0371 5.52521 15.8795 5.43585C15.4618 5.4026 15.3225 5.22802 15.3496 4.81445C15.495 2.52834 17.168 0.957164 19.3211 0.722319C20.1587 0.630875 21.0253 0.601781 21.8421 0.863643C24.5812 1.74067 25.6142 4.90173 23.9827 7.35202C23.5858 7.94848 23.1036 8.4722 22.5861 8.96683C21.1646 10.3219 19.7513 11.6873 18.334 13.0486C18.3921 13.1525 18.4462 13.2522 18.5023 13.352Z" fill="#253761"/>
<path id="Vector_5" d="M10.9648 6.32096C10.89 7.72588 11.1082 9.43837 10.8505 11.1384C10.5014 13.4307 9.02162 14.9541 6.73136 15.2596C4.87339 15.5069 3.09231 15.2492 1.66038 13.8776C0.910119 13.1585 0.583828 12.2274 0.50901 11.2007C0.479915 10.8017 0.635786 10.5731 1.0556 10.5793C2.15293 10.596 2.51247 10.357 2.7099 11.7182C2.76809 12.1193 3.01333 12.4789 3.33546 12.7553C4.40785 13.6739 5.65066 13.809 6.9288 13.3975C8.18824 12.9901 8.75976 11.9323 8.84704 10.7061C9.02785 8.16023 8.87199 5.60603 8.90732 3.05391C8.91355 2.605 8.60597 2.6632 8.33164 2.66112C6.27622 2.65488 4.22289 2.65073 2.16748 2.64449C1.31123 2.64241 0.895572 1.94827 1.27797 1.16684C1.40059 0.919524 1.62297 0.861332 1.87444 0.861332C4.68634 0.861332 7.49825 0.861333 10.3102 0.859255C10.8256 0.859255 10.971 1.14398 10.969 1.60951C10.9586 3.08093 10.9648 4.55027 10.9648 6.32096Z" fill="#253761"/>
<path id="Vector_6" d="M113.526 8.02094C113.526 10.0098 113.526 11.9988 113.526 13.9877C113.526 15.1266 113.515 15.137 112.503 15.137C111.526 15.137 111.51 15.1182 111.508 13.9544C111.506 12.4414 111.491 10.9264 111.512 9.41338C111.518 8.97279 111.404 8.81484 110.938 8.819C108.993 8.84394 107.046 8.83978 105.098 8.82108C104.668 8.81692 104.545 8.96032 104.55 9.37805C104.564 11.022 104.533 12.6638 104.552 14.3077C104.558 14.9187 104.338 15.1557 103.714 15.1453C102.53 15.1245 102.527 15.1515 102.527 13.9648C102.527 9.92256 102.525 5.87824 102.53 1.83599C102.53 1.50139 102.424 1.05248 102.831 0.925709C103.296 0.78023 103.824 0.757372 104.29 0.961043C104.587 1.0899 104.543 1.43281 104.543 1.71338C104.55 3.27 104.57 4.82663 104.55 6.38326C104.543 6.83217 104.662 6.97349 105.123 6.96725C107.048 6.94231 108.972 6.94231 110.897 6.96725C111.368 6.97349 111.526 6.86749 111.516 6.36663C111.483 4.85365 111.506 3.34066 111.51 1.8256C111.512 0.927788 111.593 0.855049 112.534 0.855049C113.461 0.857127 113.524 0.919475 113.526 1.8547C113.526 3.91427 113.526 5.96761 113.526 8.02094Z" fill="#253761"/>
<path id="Vector_7" d="M94.1788 8.81083C94.1788 10.6272 94.1809 12.4457 94.1788 14.2621C94.1788 15.0519 94.0999 15.1309 93.3392 15.1392C92.1525 15.1537 92.1504 15.1537 92.1504 13.9587C92.1504 10.4547 92.1317 6.95077 92.1671 3.4468C92.1733 2.79838 91.98 2.64666 91.3711 2.67992C90.4213 2.73187 89.4674 2.66953 88.5155 2.7007C87.8006 2.72356 87.7881 2.29336 87.7819 1.76963C87.7777 1.22513 87.8463 0.848958 88.5363 0.853115C91.608 0.871819 94.6818 0.85935 97.7535 0.863507C98.458 0.865585 98.5224 0.975734 98.5453 1.79873C98.5619 2.35155 98.4663 2.72356 97.7826 2.70278C96.7891 2.66953 95.7916 2.71733 94.7982 2.68615C94.3222 2.66952 94.1622 2.79838 94.1705 3.29716C94.1996 5.13436 94.183 6.97363 94.183 8.81291C94.1809 8.81083 94.1809 8.81083 94.1788 8.81083Z" fill="#253761"/>
<path id="Vector_8" d="M78.9309 8.01891C78.9309 5.91986 78.9267 3.82288 78.9329 1.7259C78.935 0.927841 79.0244 0.859258 79.9908 0.861336C80.8637 0.863414 80.9634 0.948625 80.9655 1.74668C80.9738 5.37951 80.9904 9.0144 80.9676 12.6472C80.9634 13.2167 81.113 13.385 81.6887 13.3767C83.5924 13.3455 85.4961 13.3684 87.3998 13.3767C88.1293 13.3809 88.1854 13.4806 88.2166 14.2849C88.2394 14.8814 88.0545 15.1536 87.4102 15.1474C84.8352 15.1245 82.2603 15.1266 79.6873 15.1474C79.1179 15.1515 78.9205 14.9229 78.9246 14.3784C78.9392 12.2586 78.9309 10.1388 78.9309 8.01891Z" fill="#253761"/>
</g>
</svg>
